<?xml version="1.0" encoding="UTF-8"?>
<svg xmlns="http://www.w3.org/2000/svg" xmlns:xlink="http://www.w3.org/1999/xlink" width="32px" height="px" viewBox="0 0 32 32" version="1.1">
<g id="surface1">
<path style="fill-rule:nonzero;fill:rgb(100%,100%,100%);fill-opacity:1;stroke-width:1;stroke-linecap:butt;stroke-linejoin:miter;stroke:rgb(100%,100%,100%);stroke-opacity:1;stroke-miterlimit:4;" d="M 29.859375 8 C 29.636719 7.613281 29.328125 7.277344 28.988281 7.078125 L 17.234375 0.292969 C 16.558594 -0.0976562 15.445312 -0.0976562 14.769531 0.292969 L 3.015625 7.078125 C 2.339844 7.46875 1.78125 8.433594 1.78125 9.214844 L 1.78125 22.785156 C 1.78125 23.179688 1.921875 23.613281 2.144531 24 C 2.363281 24.386719 2.675781 24.722656 3.015625 24.917969 L 14.765625 31.707031 C 15.445312 32.097656 16.550781 32.097656 17.226562 31.707031 L 28.984375 24.917969 C 29.320312 24.722656 29.628906 24.386719 29.855469 24 C 30.078125 23.613281 30.214844 23.175781 30.214844 22.785156 L 30.214844 9.214844 C 30.21875 8.824219 30.078125 8.386719 29.859375 8 Z M 16 25.480469 C 10.769531 25.480469 6.519531 21.230469 6.519531 16 C 6.519531 10.769531 10.769531 6.519531 16 6.519531 C 19.386719 6.527344 22.511719 8.332031 24.207031 11.253906 L 20.105469 13.628906 C 19.253906 12.164062 17.691406 11.265625 16 11.257812 C 13.386719 11.257812 11.261719 13.382812 11.261719 16 C 11.261719 18.613281 13.386719 20.738281 16 20.738281 C 17.691406 20.734375 19.253906 19.832031 20.105469 18.367188 L 24.207031 20.742188 C 22.511719 23.664062 19.386719 25.472656 16 25.476562 Z M 25.480469 16.527344 L 24.425781 16.527344 L 24.425781 17.578125 L 23.371094 17.578125 L 23.371094 16.527344 L 22.316406 16.527344 L 22.316406 15.472656 L 23.371094 15.472656 L 23.371094 14.421875 L 24.425781 14.421875 L 24.425781 15.472656 L 25.480469 15.472656 Z M 29.425781 16.527344 L 28.375 16.527344 L 28.375 17.578125 L 27.324219 17.578125 L 27.324219 16.527344 L 26.269531 16.527344 L 26.269531 15.472656 L 27.324219 15.472656 L 27.324219 14.421875 L 28.375 14.421875 L 28.375 15.472656 L 29.425781 15.472656 Z M 29.425781 16.527344 "/>
</g>
</svg>
