<?xml version="1.0" encoding="UTF-8"?>
<svg xmlns="http://www.w3.org/2000/svg" xmlns:xlink="http://www.w3.org/1999/xlink" width="32px" height="px" viewBox="0 0 32 32" version="1.1">
<g id="surface1">
<path style=" stroke:none;fill-rule:nonzero;fill:rgb(0%,0%,0%);fill-opacity:1;" d="M 26.964844 0 C 28.839844 0 30.347656 1.515625 30.4375 3.300781 L 30.4375 32 L 26.871094 28.96875 L 24.910156 27.1875 L 22.769531 25.324219 L 23.660156 28.261719 L 4.949219 28.261719 C 3.078125 28.261719 1.5625 26.84375 1.5625 24.960938 L 1.5625 3.308594 C 1.5625 1.523438 3.078125 0.0078125 4.953125 0.0078125 L 26.953125 0.0078125 Z M 18.808594 7.578125 L 18.765625 7.578125 L 18.492188 7.84375 C 21.261719 8.644531 22.597656 9.894531 22.597656 9.894531 C 20.816406 9.003906 19.207031 8.558594 17.601562 8.375 C 16.445312 8.199219 15.285156 8.292969 14.304688 8.375 L 14.035156 8.375 C 13.410156 8.375 12.078125 8.644531 10.289062 9.359375 C 9.671875 9.628906 9.3125 9.808594 9.3125 9.808594 C 9.3125 9.808594 10.644531 8.46875 13.59375 7.753906 L 13.410156 7.578125 C 13.410156 7.578125 11.179688 7.488281 8.773438 9.269531 C 8.773438 9.269531 6.367188 13.464844 6.367188 18.628906 C 6.367188 18.628906 7.703125 20.949219 11.359375 21.035156 C 11.359375 21.035156 11.894531 20.328125 12.433594 19.703125 C 10.378906 19.078125 9.578125 17.828125 9.578125 17.828125 C 9.578125 17.828125 9.761719 17.917969 10.027344 18.09375 L 10.105469 18.09375 C 10.144531 18.09375 10.167969 18.113281 10.1875 18.136719 L 10.1875 18.144531 C 10.207031 18.167969 10.230469 18.183594 10.265625 18.183594 C 10.707031 18.363281 11.144531 18.539062 11.503906 18.71875 C 12.128906 18.984375 12.925781 19.253906 13.90625 19.433594 C 15.144531 19.613281 16.566406 19.699219 18.1875 19.433594 C 18.984375 19.25 19.785156 19.078125 20.589844 18.71875 C 21.105469 18.453125 21.742188 18.1875 22.445312 17.734375 C 22.445312 17.734375 21.648438 18.984375 19.507812 19.609375 C 19.945312 20.230469 20.566406 20.941406 20.566406 20.941406 C 24.226562 20.859375 25.648438 18.539062 25.726562 18.640625 C 25.726562 13.480469 23.304688 9.28125 23.304688 9.28125 C 21.128906 7.660156 19.085938 7.597656 18.726562 7.597656 L 18.800781 7.574219 Z M 19.03125 13.464844 C 19.96875 13.464844 20.722656 14.261719 20.722656 15.238281 C 20.722656 16.230469 19.964844 17.027344 19.03125 17.027344 C 18.09375 17.027344 17.339844 16.230469 17.339844 15.25 C 17.339844 14.261719 18.097656 13.464844 19.03125 13.464844 Z M 12.972656 13.464844 C 13.90625 13.464844 14.660156 14.261719 14.660156 15.238281 C 14.660156 16.230469 13.902344 17.027344 12.96875 17.027344 C 12.03125 17.027344 11.269531 16.230469 11.269531 15.25 C 11.269531 14.261719 12.03125 13.464844 12.96875 13.464844 Z M 12.972656 13.464844 "/>
</g>
</svg>
