<?xml version="1.0" encoding="UTF-8"?>
<svg xmlns="http://www.w3.org/2000/svg" xmlns:xlink="http://www.w3.org/1999/xlink" width="32px" height="px" viewBox="0 0 32 32" version="1.1">
<g id="surface1">
<path style=" stroke:none;fill-rule:nonzero;fill:rgb(0%,0%,0%);fill-opacity:1;" d="M 14.8125 0.03125 C 14.449219 0.0351562 14.007812 0.046875 13.828125 0.0625 C 8.96875 0.480469 4.625 3.359375 2.105469 7.8125 C 0.902344 9.964844 0.195312 12.359375 0.0273438 14.816406 C -0.0234375 15.503906 0 17.140625 0.0742188 17.761719 C 0.480469 21.339844 1.875 24.503906 4.167969 27.046875 C 6.78125 29.941406 10.28125 31.671875 14.085938 31.929688 C 14.640625 31.972656 15.476562 31.984375 15.445312 31.945312 C 15.296875 31.898438 15.148438 31.867188 14.992188 31.847656 C 12.761719 31.40625 10.476562 30.34375 8.625 28.867188 C 7.371094 27.863281 6.265625 26.679688 5.355469 25.359375 C 3.609375 22.785156 2.621094 19.777344 2.511719 16.664062 C 2.429688 14.738281 2.679688 12.808594 3.257812 10.96875 C 4.304688 7.601562 6.417969 4.664062 9.226562 2.660156 C 10.914062 1.441406 12.835938 0.589844 14.875 0.160156 L 15.464844 0.03125 Z M 16.777344 0.714844 C 14.191406 0.863281 11.738281 1.734375 9.734375 3.199219 C 7.234375 5.027344 5.324219 7.527344 4.289062 10.328125 C 4.097656 10.859375 3.914062 11.421875 3.914062 11.5 C 3.914062 11.515625 9.019531 11.53125 17.660156 11.53125 C 28.945312 11.53125 31.414062 11.519531 31.414062 11.484375 C 31.414062 11.421875 31.214844 10.785156 31.039062 10.3125 C 30.839844 9.753906 30.269531 8.566406 29.945312 8.015625 C 29.414062 7.105469 28.734375 6.1875 27.984375 5.359375 C 25.78125 2.933594 23.191406 1.449219 20.222656 0.914062 C 19.175781 0.726562 17.820312 0.648438 16.773438 0.714844 Z M 31.769531 13.292969 C 31.746094 13.292969 25.386719 13.292969 17.628906 13.296875 L 3.53125 13.308594 L 3.515625 13.386719 C 3.46875 13.597656 3.339844 14.828125 3.339844 15.046875 C 3.339844 15.082031 5.714844 15.089844 17.664062 15.089844 L 32 15.089844 L 32 14.988281 C 32 14.855469 31.90625 13.933594 31.859375 13.582031 C 31.832031 13.367188 31.804688 13.289062 31.773438 13.289062 Z M 17.675781 16.808594 C 5.183594 16.800781 3.371094 16.808594 3.355469 16.855469 C 3.324219 16.90625 3.386719 17.597656 3.453125 18.152344 C 3.480469 18.359375 3.5 18.546875 3.5 18.574219 C 3.5 18.605469 6.347656 18.621094 17.667969 18.621094 L 31.828125 18.621094 L 31.863281 18.363281 C 31.921875 17.933594 32 17.074219 31.988281 16.941406 L 31.980469 16.816406 Z M 17.683594 20.433594 C 5.839844 20.433594 3.914062 20.4375 3.914062 20.480469 C 3.914062 20.503906 3.988281 20.753906 4.078125 21.035156 C 4.664062 22.863281 5.601562 24.558594 6.835938 26.027344 C 7.210938 26.484375 8.097656 27.40625 8.476562 27.746094 C 10.566406 29.609375 12.804688 30.699219 15.382812 31.113281 C 16.191406 31.238281 16.566406 31.265625 17.71875 31.261719 C 18.929688 31.261719 19.445312 31.21875 20.414062 31.027344 C 23.226562 30.476562 25.632812 29.09375 27.789062 26.804688 C 29.476562 25.007812 30.597656 23.121094 31.289062 20.917969 L 31.445312 20.433594 Z M 17.683594 20.433594 "/>
</g>
</svg>
