<?xml version="1.0" encoding="UTF-8"?>
<svg xmlns="http://www.w3.org/2000/svg" xmlns:xlink="http://www.w3.org/1999/xlink" width="32px" height="px" viewBox="0 0 32 32" version="1.1">
<g id="surface1">
<path style="fill-rule:nonzero;fill:rgb(100%,100%,100%);fill-opacity:1;stroke-width:1;stroke-linecap:butt;stroke-linejoin:miter;stroke:rgb(100%,100%,100%);stroke-opacity:1;stroke-miterlimit:4;" d="M 16 0.394531 C 7.160156 0.394531 0 7.5625 0 16.394531 C 0 23.46875 4.585938 29.464844 10.9375 31.578125 C 11.738281 31.730469 12.03125 31.234375 12.03125 30.808594 C 12.03125 30.425781 12.019531 29.421875 12.015625 28.089844 C 7.5625 29.050781 6.625 25.9375 6.625 25.9375 C 5.894531 24.09375 4.84375 23.597656 4.84375 23.597656 C 3.394531 22.609375 4.957031 22.628906 4.957031 22.628906 C 6.5625 22.738281 7.40625 24.273438 7.40625 24.273438 C 8.832031 26.722656 11.148438 26.015625 12.066406 25.601562 C 12.207031 24.570312 12.625 23.863281 13.078125 23.46875 C 9.527344 23.066406 5.789062 21.691406 5.789062 15.5625 C 5.789062 13.808594 6.410156 12.382812 7.4375 11.265625 C 7.257812 10.863281 6.71875 9.234375 7.578125 7.027344 C 7.578125 7.027344 8.914062 6.601562 11.976562 8.671875 C 13.257812 8.316406 14.617188 8.136719 15.976562 8.128906 C 17.335938 8.136719 18.695312 8.316406 19.976562 8.671875 C 23.019531 6.601562 24.359375 7.027344 24.359375 7.027344 C 25.21875 9.234375 24.675781 10.863281 24.519531 11.265625 C 25.535156 12.382812 26.152344 13.8125 26.152344 15.5625 C 26.152344 21.707031 22.414062 23.0625 18.859375 23.453125 C 19.414062 23.929688 19.933594 24.914062 19.933594 26.410156 C 19.933594 28.550781 19.914062 30.273438 19.914062 30.796875 C 19.914062 31.210938 20.195312 31.710938 21.019531 31.550781 C 27.417969 29.457031 31.996094 23.457031 31.996094 16.394531 C 31.996094 7.5625 24.835938 0.394531 15.996094 0.394531 Z M 16 0.394531 "/>
</g>
</svg>
