<?xml version="1.0" encoding="UTF-8"?>
<svg xmlns="http://www.w3.org/2000/svg" xmlns:xlink="http://www.w3.org/1999/xlink" width="32px" height="px" viewBox="0 0 32 32" version="1.1">
<g id="surface1">
<path style=" stroke:none;fill-rule:nonzero;fill:rgb(0%,0%,0%);fill-opacity:1;" d="M 32 6 L 32 26 C 32 27.136719 31.136719 28 30 28 L 28 28 L 28 9.847656 L 16 18.46875 L 4 9.847656 L 4 28 L 2 28 C 0.863281 28 0 27.136719 0 26 L 0 6 C 0 5.433594 0.214844 4.933594 0.574219 4.578125 C 0.933594 4.214844 1.433594 4 2 4 L 2.667969 4 L 16 13.667969 L 29.332031 4 L 30 4 C 30.566406 4 31.066406 4.214844 31.425781 4.578125 C 31.785156 4.933594 32 5.433594 32 6 Z M 32 6 "/>
</g>
</svg>
