<?xml version="1.0" encoding="UTF-8"?>
<svg xmlns="http://www.w3.org/2000/svg" xmlns:xlink="http://www.w3.org/1999/xlink" width="32px" height="px" viewBox="0 0 32 32" version="1.1">
<g id="surface1">
<path style="fill-rule:nonzero;fill:rgb(100%,100%,100%);fill-opacity:1;stroke-width:1;stroke-linecap:butt;stroke-linejoin:miter;stroke:rgb(100%,100%,100%);stroke-opacity:1;stroke-miterlimit:4;" d="M 16 0 C 11.652344 0 11.109375 0.0195312 9.40625 0.09375 C 7.699219 0.175781 6.542969 0.441406 5.523438 0.839844 C 4.46875 1.25 3.574219 1.796875 2.6875 2.6875 C 1.796875 3.570312 1.246094 4.46875 0.839844 5.519531 C 0.445312 6.539062 0.179688 7.695312 0.09375 9.40625 C 0.0195312 11.109375 0.00390625 11.648438 0.00390625 15.996094 C 0.00390625 20.347656 0.0234375 20.890625 0.09375 22.589844 C 0.179688 24.296875 0.445312 25.457031 0.839844 26.476562 C 1.253906 27.527344 1.800781 28.425781 2.6875 29.308594 C 3.574219 30.199219 4.46875 30.753906 5.523438 31.15625 C 6.542969 31.550781 7.703125 31.820312 9.40625 31.902344 C 11.109375 31.980469 11.652344 31.996094 16 31.996094 C 20.347656 31.996094 20.890625 31.976562 22.59375 31.902344 C 24.296875 31.820312 25.457031 31.546875 26.476562 31.15625 C 27.53125 30.746094 28.425781 30.199219 29.3125 29.308594 C 30.203125 28.425781 30.753906 27.53125 31.160156 26.476562 C 31.550781 25.457031 31.820312 24.296875 31.90625 22.589844 C 31.980469 20.886719 31.996094 20.347656 31.996094 15.996094 C 31.996094 11.648438 31.976562 11.105469 31.90625 9.40625 C 31.820312 7.699219 31.550781 6.535156 31.160156 5.519531 C 30.746094 4.46875 30.199219 3.570312 29.3125 2.6875 C 28.425781 1.796875 27.535156 1.242188 26.476562 0.839844 C 25.457031 0.441406 24.296875 0.175781 22.59375 0.09375 C 20.890625 0.015625 20.347656 0 16 0 Z M 16 2.878906 C 20.269531 2.878906 20.78125 2.902344 22.46875 2.972656 C 24.027344 3.046875 24.875 3.304688 25.4375 3.527344 C 26.1875 3.816406 26.714844 4.160156 27.28125 4.722656 C 27.839844 5.28125 28.183594 5.8125 28.472656 6.5625 C 28.691406 7.125 28.953125 7.972656 29.027344 9.53125 C 29.097656 11.21875 29.117188 11.730469 29.117188 16 C 29.117188 20.269531 29.097656 20.78125 29.019531 22.46875 C 28.9375 24.023438 28.675781 24.871094 28.457031 25.4375 C 28.152344 26.1875 27.816406 26.710938 27.257812 27.28125 C 26.695312 27.835938 26.160156 28.179688 25.414062 28.472656 C 24.859375 28.691406 23.996094 28.953125 22.433594 29.023438 C 20.738281 29.097656 20.238281 29.117188 15.957031 29.117188 C 11.675781 29.117188 11.175781 29.097656 9.476562 29.019531 C 7.917969 28.933594 7.058594 28.675781 6.496094 28.457031 C 5.738281 28.152344 5.214844 27.816406 4.65625 27.257812 C 4.09375 26.695312 3.738281 26.15625 3.460938 25.414062 C 3.238281 24.855469 2.980469 23.996094 2.898438 22.433594 C 2.839844 20.757812 2.8125 20.238281 2.8125 15.976562 C 2.8125 11.714844 2.839844 11.195312 2.898438 9.496094 C 2.980469 7.933594 3.238281 7.074219 3.460938 6.515625 C 3.738281 5.757812 4.097656 5.234375 4.65625 4.671875 C 5.214844 4.117188 5.738281 3.757812 6.496094 3.472656 C 7.058594 3.253906 7.898438 2.996094 9.460938 2.917969 C 11.15625 2.855469 11.65625 2.835938 15.933594 2.835938 Z M 16 7.785156 C 11.460938 7.785156 7.785156 11.464844 7.785156 16 C 7.785156 20.539062 11.464844 24.214844 16 24.214844 C 20.539062 24.214844 24.214844 20.535156 24.214844 16 C 24.214844 11.460938 20.535156 7.785156 16 7.785156 Z M 16 21.332031 C 13.050781 21.332031 10.667969 18.949219 10.667969 16 C 10.667969 13.050781 13.050781 10.667969 16 10.667969 C 18.949219 10.667969 21.332031 13.050781 21.332031 16 C 21.332031 18.949219 18.949219 21.332031 16 21.332031 Z M 26.464844 7.460938 C 26.464844 8.523438 25.597656 9.378906 24.539062 9.378906 C 23.476562 9.378906 22.621094 8.519531 22.621094 7.460938 C 22.621094 6.402344 23.484375 5.542969 24.539062 5.542969 C 25.597656 5.542969 26.464844 6.402344 26.464844 7.460938 Z M 26.464844 7.460938 "/>
</g>
</svg>
