<?xml version="1.0" encoding="UTF-8"?>
<svg xmlns="http://www.w3.org/2000/svg" xmlns:xlink="http://www.w3.org/1999/xlink" width="32px" height="px" viewBox="0 0 32 32" version="1.1">
<g id="surface1">
<path style=" stroke:none;fill-rule:nonzero;fill:rgb(0%,0%,0%);fill-opacity:1;" d="M 0 0 L 32 0 L 32 32 L 0 32 Z M 29.378906 24.371094 C 29.144531 22.90625 28.191406 21.683594 25.375 20.535156 C 24.394531 20.078125 23.300781 19.757812 22.980469 19.015625 C 22.859375 18.578125 22.839844 18.339844 22.914062 18.078125 C 23.117188 17.214844 24.136719 16.957031 24.9375 17.199219 C 25.457031 17.359375 25.9375 17.753906 26.238281 18.394531 C 27.617188 17.496094 27.617188 17.496094 28.578125 16.894531 C 28.21875 16.339844 28.042969 16.09375 27.796875 15.859375 C 26.957031 14.917969 25.839844 14.4375 24.019531 14.480469 L 23.078125 14.601562 C 22.175781 14.820312 21.316406 15.296875 20.796875 15.9375 C 19.28125 17.65625 19.71875 20.65625 21.558594 21.902344 C 23.375 23.261719 26.035156 23.558594 26.378906 24.839844 C 26.699219 26.402344 25.21875 26.902344 23.753906 26.722656 C 22.675781 26.480469 22.078125 25.941406 21.414062 24.941406 L 18.976562 26.339844 C 19.253906 26.980469 19.578125 27.257812 20.054688 27.820312 C 22.375 30.160156 28.175781 30.039062 29.21875 26.480469 C 29.253906 26.359375 29.535156 25.539062 29.316406 24.28125 Z M 17.402344 14.707031 L 14.40625 14.707031 C 14.40625 17.289062 14.390625 19.859375 14.390625 22.449219 C 14.390625 24.089844 14.472656 25.597656 14.207031 26.0625 C 13.765625 26.980469 12.636719 26.863281 12.117188 26.703125 C 11.59375 26.445312 11.320312 26.085938 11.015625 25.5625 C 10.925781 25.421875 10.863281 25.304688 10.84375 25.304688 L 8.410156 26.804688 C 8.816406 27.640625 9.410156 28.367188 10.175781 28.824219 C 11.316406 29.507812 12.847656 29.726562 14.453125 29.367188 C 15.496094 29.0625 16.394531 28.445312 16.863281 27.484375 C 17.546875 26.246094 17.398438 24.726562 17.394531 23.023438 C 17.410156 20.28125 17.394531 17.542969 17.394531 14.78125 Z M 17.402344 14.707031 "/>
</g>
</svg>
