<?xml version="1.0" encoding="UTF-8"?>
<svg xmlns="http://www.w3.org/2000/svg" xmlns:xlink="http://www.w3.org/1999/xlink" width="32px" height="px" viewBox="0 0 32 32" version="1.1">
<g id="surface1">
<path style=" stroke:none;fill-rule:nonzero;fill:rgb(0%,0%,0%);fill-opacity:1;" d="M 11.804688 24.746094 C 11.804688 24.746094 10.578125 25.457031 12.671875 25.695312 C 15.207031 25.988281 16.503906 25.949219 19.296875 25.414062 C 19.296875 25.414062 20.03125 25.878906 21.058594 26.28125 C 14.792969 28.964844 6.878906 26.121094 11.800781 24.746094 Z M 11.035156 21.246094 C 11.035156 21.246094 9.660156 22.261719 11.753906 22.472656 C 14.46875 22.753906 16.605469 22.78125 20.308594 22.066406 C 20.308594 22.066406 20.816406 22.585938 21.625 22.867188 C 14.054688 25.082031 5.613281 23.039062 11.035156 21.246094 Z M 17.488281 15.304688 C 19.03125 17.078125 17.082031 18.679688 17.082031 18.679688 C 17.082031 18.679688 21 16.652344 19.203125 14.121094 C 17.519531 11.757812 16.230469 10.585938 23.207031 6.535156 C 23.207031 6.535156 12.253906 9.273438 17.488281 15.304688 Z M 25.769531 27.339844 C 25.769531 27.339844 26.679688 28.082031 24.777344 28.660156 C 21.160156 29.753906 9.730469 30.082031 6.550781 28.703125 C 5.410156 28.207031 7.550781 27.515625 8.222656 27.375 C 8.925781 27.21875 9.328125 27.25 9.328125 27.25 C 8.058594 26.355469 1.121094 29.007812 5.804688 29.765625 C 18.578125 31.839844 29.089844 28.835938 25.769531 27.339844 Z M 12.390625 17.613281 C 12.390625 17.613281 6.574219 18.996094 10.328125 19.496094 C 11.917969 19.707031 15.078125 19.660156 18.027344 19.410156 C 20.433594 19.207031 22.851562 18.777344 22.851562 18.777344 C 22.851562 18.777344 22 19.140625 21.386719 19.5625 C 15.480469 21.113281 4.070312 20.390625 7.355469 18.804688 C 10.132812 17.464844 12.390625 17.613281 12.390625 17.613281 Z M 22.824219 23.449219 C 28.824219 20.324219 26.046875 17.328125 24.113281 17.734375 C 23.640625 17.828125 23.425781 17.917969 23.425781 17.917969 C 23.425781 17.917969 23.597656 17.640625 23.9375 17.523438 C 27.769531 16.171875 30.71875 21.496094 22.703125 23.605469 C 22.703125 23.601562 22.796875 23.523438 22.824219 23.449219 Z M 19.203125 0 C 19.203125 0 22.527344 3.324219 16.046875 8.4375 C 10.855469 12.539062 14.863281 14.878906 16.046875 17.550781 C 13.015625 14.816406 10.792969 12.410156 12.28125 10.171875 C 14.472656 6.875 20.542969 5.28125 19.203125 0 Z M 12.980469 31.902344 C 18.738281 32.265625 27.589844 31.691406 27.804688 28.96875 C 27.804688 28.96875 27.394531 30 23.035156 30.820312 C 18.121094 31.75 12.050781 31.640625 8.453125 31.046875 C 8.453125 31.046875 9.191406 31.65625 12.976562 31.902344 Z M 12.980469 31.902344 "/>
</g>
</svg>
