<?xml version="1.0" encoding="UTF-8"?>
<svg xmlns="http://www.w3.org/2000/svg" xmlns:xlink="http://www.w3.org/1999/xlink" width="32px" height="px" viewBox="0 0 32 32" version="1.1">
<g id="surface1">
<path style=" stroke:none;fill-rule:nonzero;fill:rgb(0%,0%,0%);fill-opacity:1;" d="M 16.265625 24.136719 C 11.195312 24.136719 6.664062 22.265625 4.265625 19.597656 C 5.195312 22 6.800781 24.136719 8.933594 25.597656 C 11.066406 27.066406 13.597656 27.863281 16.265625 27.863281 C 18.929688 27.863281 21.46875 27.066406 23.597656 25.597656 C 25.734375 24.136719 27.332031 22 28.265625 19.597656 C 25.863281 22.265625 21.332031 24.136719 16.265625 24.136719 Z M 16.265625 6.53125 C 21.332031 6.53125 25.863281 8.402344 28.265625 11.066406 C 27.332031 8.667969 25.734375 6.53125 23.597656 5.066406 C 21.332031 3.46875 18.800781 2.667969 16.265625 2.667969 C 13.597656 2.667969 11.066406 3.46875 8.933594 4.933594 C 6.804688 6.53125 5.195312 8.53125 4.265625 11.066406 C 6.664062 8.265625 11.066406 6.53125 16.265625 6.53125 Z M 25.597656 0.136719 C 23.109375 0.136719 23.109375 3.863281 25.597656 3.863281 C 28.089844 3.863281 28.089844 0.136719 25.597656 0.136719 Z M 6.804688 27.066406 C 5.472656 27.066406 4.402344 28.140625 4.402344 29.46875 C 4.402344 30.792969 5.472656 31.863281 6.804688 31.863281 C 8.125 31.863281 9.199219 30.792969 9.199219 29.46875 C 9.199219 28.140625 8.125 27.066406 6.804688 27.066406 Z M 4.804688 3.066406 C 3.023438 3.066406 3.023438 5.734375 4.804688 5.734375 C 6.578125 5.734375 6.578125 3.066406 4.804688 3.066406 Z M 4.804688 3.066406 "/>
</g>
</svg>
