<?xml version="1.0" encoding="UTF-8"?>
<svg xmlns="http://www.w3.org/2000/svg" xmlns:xlink="http://www.w3.org/1999/xlink" width="32px" height="px" viewBox="0 0 32 32" version="1.1">
<g id="surface1">
<path style="fill-rule:nonzero;fill:rgb(100%,100%,100%);fill-opacity:1;stroke-width:1;stroke-linecap:butt;stroke-linejoin:miter;stroke:rgb(100%,100%,100%);stroke-opacity:1;stroke-miterlimit:4;" d="M 27.261719 27.269531 L 22.527344 27.269531 L 22.527344 19.84375 C 22.527344 18.074219 22.488281 15.796875 20.050781 15.796875 C 17.585938 15.796875 17.207031 17.71875 17.207031 19.714844 L 17.207031 27.269531 L 12.46875 27.269531 L 12.46875 12 L 17.019531 12 L 17.019531 14.082031 L 17.082031 14.082031 C 17.71875 12.878906 19.265625 11.613281 21.574219 11.613281 C 26.375 11.613281 27.265625 14.773438 27.265625 18.886719 L 27.265625 27.269531 Z M 7.113281 9.910156 C 5.589844 9.910156 4.363281 8.675781 4.363281 7.15625 C 4.363281 5.640625 5.59375 4.40625 7.113281 4.40625 C 8.636719 4.40625 9.871094 5.640625 9.871094 7.15625 C 9.871094 8.675781 8.636719 9.910156 7.113281 9.910156 Z M 9.488281 27.269531 L 4.738281 27.269531 L 4.738281 12 L 9.488281 12 Z M 29.636719 0 L 2.359375 0 C 1.058594 0 0 1.03125 0 2.308594 L 0 29.695312 C 0 30.96875 1.058594 32 2.359375 32 L 29.632812 32 C 30.933594 32 32 30.96875 32 29.695312 L 32 2.308594 C 32 1.03125 30.933594 0 29.632812 0 Z M 29.636719 0 "/>
</g>
</svg>
