<?xml version="1.0" encoding="UTF-8"?>
<svg xmlns="http://www.w3.org/2000/svg" xmlns:xlink="http://www.w3.org/1999/xlink" width="32px" height="px" viewBox="0 0 32 32" version="1.1">
<g id="surface1">
<path style=" stroke:none;fill-rule:nonzero;fill:rgb(0%,0%,0%);fill-opacity:1;" d="M 21.875 7.566406 C 21.71875 7.566406 21.613281 7.589844 21.511719 7.613281 L 21.511719 7.632812 L 21.527344 7.632812 C 21.597656 7.765625 21.71875 7.871094 21.8125 7.996094 C 21.886719 8.136719 21.945312 8.28125 22.015625 8.421875 L 22.035156 8.402344 C 22.160156 8.3125 22.222656 8.171875 22.222656 7.960938 C 22.171875 7.894531 22.160156 7.828125 22.113281 7.769531 C 22.0625 7.683594 21.949219 7.636719 21.875 7.566406 Z M 7.691406 25.160156 L 6.460938 25.160156 C 6.417969 23.078125 6.292969 21.117188 6.101562 19.28125 L 6.089844 19.28125 L 4.210938 25.160156 L 3.265625 25.160156 L 1.402344 19.28125 L 1.386719 19.28125 C 1.25 21.039062 1.160156 23.003906 1.125 25.160156 L 0 25.160156 C 0.0742188 22.535156 0.257812 20.078125 0.546875 17.785156 L 2.078125 17.785156 L 3.859375 23.203125 L 3.871094 23.203125 L 5.667969 17.785156 L 7.125 17.785156 C 7.449219 20.472656 7.640625 22.933594 7.699219 25.160156 Z M 13.046875 19.71875 C 12.546875 22.449219 11.878906 24.433594 11.0625 25.667969 C 10.417969 26.621094 9.714844 27.097656 8.949219 27.097656 C 8.746094 27.097656 8.496094 27.035156 8.191406 26.910156 L 8.191406 26.253906 C 8.34375 26.277344 8.515625 26.289062 8.710938 26.289062 C 9.066406 26.289062 9.355469 26.1875 9.574219 25.992188 C 9.835938 25.753906 9.964844 25.484375 9.964844 25.1875 C 9.964844 24.980469 9.867188 24.5625 9.65625 23.925781 L 8.308594 19.71875 L 9.523438 19.71875 L 10.492188 22.863281 C 10.710938 23.585938 10.804688 24.078125 10.761719 24.363281 C 11.300781 22.949219 11.667969 21.394531 11.878906 19.71875 Z M 29.484375 25.160156 L 25.972656 25.160156 L 25.972656 17.785156 L 27.15625 17.785156 L 27.15625 24.253906 L 29.484375 24.253906 Z M 25.058594 25.339844 L 23.703125 24.671875 C 23.824219 24.574219 23.9375 24.464844 24.042969 24.339844 C 24.621094 23.667969 24.90625 22.660156 24.90625 21.339844 C 24.90625 18.894531 23.949219 17.679688 22.03125 17.679688 C 21.09375 17.679688 20.359375 17.984375 19.835938 18.605469 C 19.261719 19.28125 18.96875 20.28125 18.96875 21.601562 C 18.96875 22.898438 19.222656 23.84375 19.734375 24.453125 C 20.203125 24.996094 20.90625 25.273438 21.851562 25.273438 C 22.199219 25.273438 22.523438 25.230469 22.8125 25.140625 L 24.578125 26.171875 L 25.0625 25.339844 Z M 20.667969 23.683594 C 20.363281 23.203125 20.21875 22.433594 20.21875 21.367188 C 20.21875 19.511719 20.78125 18.582031 21.910156 18.582031 C 22.5 18.582031 22.9375 18.808594 23.214844 19.25 C 23.511719 19.734375 23.660156 20.496094 23.660156 21.546875 C 23.660156 23.417969 23.09375 24.359375 21.96875 24.359375 C 21.375 24.359375 20.941406 24.136719 20.660156 23.691406 Z M 18.457031 23.121094 C 18.457031 23.746094 18.230469 24.261719 17.765625 24.65625 C 17.308594 25.058594 16.695312 25.261719 15.921875 25.261719 C 15.195312 25.261719 14.503906 25.03125 13.820312 24.570312 L 14.140625 23.9375 C 14.722656 24.230469 15.25 24.375 15.730469 24.375 C 16.171875 24.375 16.519531 24.277344 16.769531 24.082031 C 17.019531 23.886719 17.171875 23.609375 17.171875 23.261719 C 17.171875 22.820312 16.863281 22.445312 16.308594 22.136719 C 15.789062 21.847656 14.753906 21.261719 14.753906 21.261719 C 14.191406 20.847656 13.914062 20.410156 13.914062 19.6875 C 13.914062 19.089844 14.125 18.609375 14.539062 18.242188 C 14.964844 17.867188 15.5 17.6875 16.164062 17.6875 C 16.847656 17.6875 17.472656 17.867188 18.035156 18.234375 L 17.75 18.867188 C 17.269531 18.664062 16.796875 18.5625 16.332031 18.5625 C 15.953125 18.5625 15.660156 18.65625 15.457031 18.839844 C 15.253906 19.019531 15.128906 19.25 15.128906 19.535156 C 15.128906 19.972656 15.441406 20.347656 16.015625 20.671875 C 16.539062 20.957031 17.597656 21.5625 17.597656 21.5625 C 18.175781 21.96875 18.464844 22.40625 18.464844 23.117188 Z M 30.964844 15.3125 C 30.25 15.296875 29.699219 15.371094 29.234375 15.566406 C 29.105469 15.621094 28.890625 15.621094 28.871094 15.785156 C 28.941406 15.859375 28.953125 15.976562 29.015625 16.074219 C 29.125 16.25 29.308594 16.488281 29.480469 16.613281 C 29.667969 16.761719 29.855469 16.90625 30.046875 17.03125 C 30.398438 17.246094 30.789062 17.371094 31.132812 17.585938 C 31.324219 17.710938 31.523438 17.871094 31.714844 18 C 31.8125 18.070312 31.875 18.1875 32 18.230469 L 32 18.203125 C 31.9375 18.125 31.921875 18.011719 31.859375 17.917969 C 31.769531 17.828125 31.683594 17.75 31.59375 17.664062 C 31.332031 17.3125 31.015625 17.011719 30.664062 16.761719 C 30.378906 16.570312 29.753906 16.296875 29.640625 15.96875 L 29.625 15.949219 C 29.816406 15.933594 30.046875 15.859375 30.234375 15.808594 C 30.535156 15.730469 30.816406 15.746094 31.128906 15.667969 C 31.269531 15.632812 31.410156 15.589844 31.554688 15.542969 L 31.554688 15.464844 C 31.394531 15.304688 31.273438 15.085938 31.109375 14.933594 C 30.65625 14.542969 30.15625 14.15625 29.640625 13.839844 C 29.359375 13.65625 29.003906 13.542969 28.707031 13.390625 C 28.601562 13.339844 28.421875 13.3125 28.363281 13.222656 C 28.203125 13.027344 28.109375 12.769531 27.992188 12.535156 C 27.738281 12.046875 27.488281 11.503906 27.265625 10.984375 C 27.101562 10.636719 27.007812 10.289062 26.8125 9.96875 C 25.894531 8.453125 24.894531 7.535156 23.363281 6.636719 C 23.035156 6.445312 22.640625 6.367188 22.222656 6.269531 C 21.996094 6.261719 21.777344 6.242188 21.554688 6.234375 C 21.410156 6.171875 21.269531 6.003906 21.144531 5.921875 C 20.632812 5.597656 19.320312 4.90625 18.949219 5.820312 C 18.710938 6.40625 19.304688 6.972656 19.515625 7.265625 C 19.664062 7.472656 19.859375 7.703125 19.96875 7.933594 C 20.03125 8.089844 20.046875 8.25 20.109375 8.410156 C 20.25 8.800781 20.382812 9.238281 20.570312 9.605469 C 20.671875 9.792969 20.773438 9.988281 20.898438 10.15625 C 20.972656 10.253906 21.097656 10.296875 21.125 10.457031 C 21 10.640625 20.988281 10.90625 20.921875 11.125 C 20.597656 12.136719 20.722656 13.378906 21.175781 14.125 C 21.320312 14.347656 21.660156 14.839844 22.113281 14.652344 C 22.515625 14.488281 22.425781 13.984375 22.539062 13.535156 C 22.566406 13.425781 22.550781 13.359375 22.605469 13.285156 L 22.605469 13.308594 C 22.734375 13.558594 22.859375 13.796875 22.972656 14.046875 C 23.246094 14.484375 23.730469 14.9375 24.128906 15.238281 C 24.34375 15.402344 24.511719 15.679688 24.777344 15.777344 L 24.777344 15.75 L 24.753906 15.75 C 24.699219 15.671875 24.625 15.636719 24.550781 15.574219 C 24.390625 15.410156 24.214844 15.214844 24.082031 15.035156 C 23.714844 14.535156 23.378906 13.984375 23.089844 13.417969 C 22.941406 13.136719 22.816406 12.835938 22.703125 12.558594 C 22.652344 12.453125 22.652344 12.292969 22.5625 12.238281 C 22.425781 12.433594 22.230469 12.597656 22.136719 12.84375 C 21.964844 13.222656 21.945312 13.699219 21.878906 14.1875 C 21.847656 14.199219 21.863281 14.1875 21.847656 14.210938 C 21.5625 14.136719 21.464844 13.84375 21.359375 13.59375 C 21.089844 12.960938 21.046875 11.941406 21.277344 11.214844 C 21.339844 11.027344 21.605469 10.4375 21.5 10.261719 C 21.441406 10.089844 21.265625 9.988281 21.171875 9.855469 C 21.050781 9.6875 20.933594 9.476562 20.847656 9.285156 C 20.636719 8.785156 20.53125 8.234375 20.296875 7.734375 C 20.191406 7.507812 20.003906 7.265625 19.855469 7.054688 C 19.683594 6.8125 19.496094 6.640625 19.363281 6.359375 C 19.316406 6.261719 19.253906 6.101562 19.328125 5.996094 C 19.34375 5.921875 19.378906 5.894531 19.453125 5.875 C 19.566406 5.777344 19.902344 5.902344 20.015625 5.957031 C 20.34375 6.089844 20.621094 6.214844 20.894531 6.402344 C 21.019531 6.488281 21.15625 6.65625 21.316406 6.703125 L 21.507812 6.703125 C 21.792969 6.765625 22.109375 6.71875 22.375 6.800781 C 22.851562 6.953125 23.277344 7.171875 23.660156 7.410156 C 24.828125 8.15625 25.785156 9.207031 26.4375 10.464844 C 26.546875 10.664062 26.59375 10.855469 26.691406 11.066406 C 26.875 11.511719 27.109375 11.953125 27.296875 12.375 C 27.484375 12.796875 27.660156 13.222656 27.933594 13.570312 C 28.066406 13.761719 28.597656 13.859375 28.84375 13.953125 C 29.019531 14.035156 29.296875 14.109375 29.453125 14.203125 C 29.757812 14.390625 30.0625 14.601562 30.347656 14.8125 C 30.492188 14.910156 30.9375 15.132812 30.964844 15.3125 Z M 30.964844 15.3125 "/>
</g>
</svg>
