<?xml version="1.0" encoding="UTF-8"?>
<svg xmlns="http://www.w3.org/2000/svg" xmlns:xlink="http://www.w3.org/1999/xlink" width="32px" height="px" viewBox="0 0 32 32" version="1.1">
<g id="surface1">
<path style=" stroke:none;fill-rule:nonzero;fill:rgb(0%,0%,0%);fill-opacity:1;" d="M 9.347656 13.609375 L 8.089844 13.609375 L 7.402344 17.140625 L 8.519531 17.140625 C 9.261719 17.140625 9.8125 17 10.175781 16.71875 C 10.535156 16.441406 10.78125 15.972656 10.90625 15.324219 C 11.03125 14.699219 10.972656 14.253906 10.746094 13.996094 C 10.511719 13.738281 10.046875 13.609375 9.347656 13.609375 Z M 16 7.585938 C 7.160156 7.585938 0 11.355469 0 16 C 0 20.644531 7.160156 24.414062 16 24.414062 C 24.839844 24.414062 32 20.644531 32 16 C 32 11.355469 24.839844 7.585938 16 7.585938 Z M 11.652344 17.519531 C 11.308594 17.855469 10.886719 18.105469 10.433594 18.253906 C 9.984375 18.394531 9.410156 18.472656 8.71875 18.472656 L 7.140625 18.472656 L 6.707031 20.714844 L 4.867188 20.714844 L 6.511719 12.28125 L 10.039062 12.28125 C 11.105469 12.28125 11.878906 12.558594 12.367188 13.113281 C 12.855469 13.671875 13.003906 14.453125 12.804688 15.453125 C 12.734375 15.847656 12.59375 16.230469 12.402344 16.585938 C 12.207031 16.921875 11.964844 17.234375 11.648438 17.519531 Z M 17.019531 18.472656 L 17.746094 14.738281 C 17.828125 14.316406 17.796875 14.027344 17.648438 13.867188 C 17.511719 13.71875 17.203125 13.640625 16.734375 13.640625 L 15.28125 13.640625 L 14.34375 18.472656 L 12.515625 18.472656 L 14.15625 10.035156 L 15.980469 10.035156 L 15.542969 12.28125 L 17.167969 12.28125 C 18.195312 12.28125 18.894531 12.457031 19.28125 12.8125 C 19.671875 13.171875 19.785156 13.75 19.636719 14.546875 L 18.871094 18.472656 Z M 27.144531 15.453125 C 27.074219 15.847656 26.9375 16.230469 26.738281 16.585938 C 26.550781 16.921875 26.304688 17.234375 25.996094 17.519531 C 25.644531 17.847656 25.230469 18.105469 24.769531 18.253906 C 24.324219 18.394531 23.75 18.472656 23.058594 18.472656 L 21.484375 18.472656 L 21.046875 20.714844 L 19.210938 20.714844 L 20.851562 12.28125 L 24.382812 12.28125 C 25.445312 12.28125 26.21875 12.558594 26.710938 13.121094 C 27.195312 13.671875 27.34375 14.453125 27.144531 15.453125 Z M 23.6875 13.609375 L 22.433594 13.609375 L 21.746094 17.140625 L 22.859375 17.140625 C 23.605469 17.140625 24.15625 17 24.515625 16.71875 C 24.878906 16.441406 25.125 15.972656 25.25 15.324219 C 25.375 14.699219 25.316406 14.253906 25.082031 13.996094 C 24.855469 13.738281 24.386719 13.609375 23.6875 13.609375 Z M 23.6875 13.609375 "/>
</g>
</svg>
