<?xml version="1.0" encoding="UTF-8"?>
<svg xmlns="http://www.w3.org/2000/svg" xmlns:xlink="http://www.w3.org/1999/xlink" width="32px" height="px" viewBox="0 0 32 32" version="1.1">
<g id="surface1">
<path style=" stroke:none;fill-rule:nonzero;fill:rgb(0%,0%,0%);fill-opacity:1;" d="M 19.078125 0.238281 L 20.28125 0.503906 L 21.253906 0.855469 L 22.042969 1.253906 L 22.640625 1.683594 L 23.09375 2.136719 L 23.425781 2.585938 L 23.640625 3.027344 L 23.769531 3.425781 L 23.828125 3.769531 L 23.855469 4.039062 L 23.839844 4.214844 L 23.839844 11.332031 L 23.769531 12.171875 L 23.597656 12.90625 L 23.316406 13.523438 L 22.972656 14.027344 L 22.574219 14.4375 L 22.136719 14.769531 L 21.667969 15.027344 L 21.199219 15.214844 L 20.761719 15.351562 L 20.363281 15.4375 L 20.019531 15.496094 L 19.738281 15.523438 L 11.773438 15.523438 L 10.855469 15.589844 L 10.070312 15.773438 L 9.402344 16.070312 L 8.855469 16.429688 L 8.414062 16.855469 L 8.054688 17.320312 L 7.789062 17.804688 L 7.589844 18.292969 L 7.453125 18.761719 L 7.359375 19.1875 L 7.308594 19.546875 L 7.28125 19.828125 L 7.28125 23.90625 L 4.308594 23.90625 L 4.027344 23.863281 L 3.652344 23.773438 L 3.230469 23.617188 L 2.761719 23.375 L 2.28125 23.027344 L 1.804688 22.546875 L 1.335938 21.933594 L 0.90625 21.144531 L 0.53125 20.171875 L 0.257812 19 L 0.0703125 17.601562 L 0 15.960938 L 0.078125 14.335938 L 0.292969 12.949219 L 0.617188 11.789062 L 1.042969 10.839844 L 1.523438 10.082031 L 2.054688 9.496094 L 2.617188 9.054688 L 3.175781 8.738281 L 3.710938 8.523438 L 4.191406 8.386719 L 4.617188 8.320312 L 4.933594 8.308594 L 5.148438 8.308594 L 5.230469 8.320312 L 16.105469 8.320312 L 16.105469 7.214844 L 8.320312 7.214844 L 8.308594 3.550781 L 8.28125 3.054688 L 8.351562 2.601562 L 8.496094 2.191406 L 8.71875 1.8125 L 9.054688 1.472656 L 9.46875 1.164062 L 9.972656 0.898438 L 10.5625 0.652344 L 11.238281 0.457031 L 12.015625 0.296875 L 12.863281 0.164062 L 13.8125 0.0820312 L 14.839844 0.0273438 L 15.960938 0.00390625 L 17.652344 0.0703125 Z M 10.683594 2.878906 L 10.375 3.316406 L 10.265625 3.863281 L 10.375 4.410156 L 10.683594 4.863281 L 11.121094 5.160156 L 11.667969 5.28125 L 12.214844 5.160156 L 12.652344 4.863281 L 12.960938 4.410156 L 13.066406 3.863281 L 12.960938 3.316406 L 12.652344 2.878906 L 12.214844 2.589844 L 11.667969 2.46875 L 11.121094 2.589844 Z M 28.136719 8.144531 L 28.503906 8.230469 L 28.933594 8.386719 L 29.402344 8.625 L 29.878906 8.984375 L 30.359375 9.453125 L 30.828125 10.078125 L 31.253906 10.863281 L 31.625 11.839844 L 31.90625 13.015625 L 32.09375 14.398438 L 32.160156 16.039062 L 32.078125 17.679688 L 31.863281 19.066406 L 31.546875 20.210938 L 31.121094 21.160156 L 30.640625 21.917969 L 30.105469 22.519531 L 29.546875 22.957031 L 28.984375 23.277344 L 28.453125 23.492188 L 27.972656 23.613281 L 27.546875 23.679688 L 27.230469 23.703125 L 27.015625 23.691406 L 16.050781 23.691406 L 16.050781 24.78125 L 23.839844 24.78125 L 23.855469 28.464844 L 23.878906 28.945312 L 23.8125 29.398438 L 23.667969 29.808594 L 23.4375 30.195312 L 23.105469 30.527344 L 22.695312 30.851562 L 22.1875 31.117188 L 21.601562 31.34375 L 20.921875 31.542969 L 20.148438 31.714844 L 19.292969 31.835938 L 18.351562 31.925781 L 17.320312 31.980469 L 16.199219 31.996094 L 14.507812 31.941406 L 13.078125 31.753906 L 11.882812 31.488281 L 10.90625 31.15625 L 10.121094 30.757812 L 9.523438 30.3125 L 9.070312 29.859375 L 8.734375 29.40625 L 8.523438 28.96875 L 8.386719 28.570312 L 8.335938 28.234375 L 8.308594 27.96875 L 8.320312 27.796875 L 8.320312 20.679688 L 8.386719 19.824219 L 8.5625 19.097656 L 8.839844 18.488281 L 9.1875 17.980469 L 9.589844 17.558594 L 10.027344 17.234375 L 10.496094 16.96875 L 10.960938 16.78125 L 11.402344 16.644531 L 11.804688 16.566406 L 12.148438 16.515625 L 12.601562 16.472656 L 20.386719 16.472656 L 21.308594 16.40625 L 22.09375 16.222656 L 22.761719 15.941406 L 23.308594 15.566406 L 23.746094 15.140625 L 24.105469 14.675781 L 24.378906 14.191406 L 24.578125 13.710938 L 24.710938 13.246094 L 24.808594 12.820312 L 24.859375 12.445312 L 24.882812 12.164062 L 24.882812 8.085938 L 27.671875 8.085938 L 27.859375 8.097656 Z M 19.503906 27.144531 L 19.195312 27.589844 L 19.09375 28.136719 L 19.195312 28.683594 L 19.503906 29.121094 L 19.949219 29.425781 L 20.496094 29.53125 L 21.042969 29.425781 L 21.480469 29.121094 L 21.785156 28.683594 L 21.894531 28.136719 L 21.785156 27.589844 L 21.480469 27.144531 L 21.042969 26.839844 L 20.496094 26.734375 L 19.949219 26.839844 Z M 19.503906 27.144531 "/>
</g>
</svg>
