<?xml version="1.0" encoding="UTF-8"?>
<svg xmlns="http://www.w3.org/2000/svg" xmlns:xlink="http://www.w3.org/1999/xlink" width="32px" height="px" viewBox="0 0 32 32" version="1.1">
<g id="surface1">
<path style=" stroke:none;fill-rule:nonzero;fill:rgb(0%,0%,0%);fill-opacity:1;" d="M 31.9375 6.09375 C 30.761719 6.609375 29.5 6.964844 28.171875 7.125 C 29.527344 6.3125 30.5625 5.027344 31.058594 3.492188 C 29.785156 4.234375 28.378906 4.769531 26.886719 5.074219 C 25.691406 3.796875 23.988281 2.992188 22.097656 2.992188 C 18.472656 2.992188 15.535156 5.929688 15.535156 9.550781 C 15.535156 10.070312 15.597656 10.570312 15.707031 11.046875 C 10.253906 10.789062 5.421875 8.171875 2.1875 4.214844 C 1.617188 5.175781 1.296875 6.296875 1.296875 7.515625 C 1.296875 9.796875 2.457031 11.796875 4.210938 12.972656 C 3.140625 12.941406 2.128906 12.644531 1.242188 12.15625 L 1.242188 12.234375 C 1.242188 15.414062 3.503906 18.066406 6.503906 18.671875 C 5.957031 18.816406 5.371094 18.902344 4.78125 18.902344 C 4.359375 18.902344 3.957031 18.859375 3.554688 18.785156 C 4.398438 21.390625 6.816406 23.285156 9.695312 23.34375 C 7.457031 25.097656 4.617188 26.144531 1.5625 26.144531 C 1.039062 26.144531 0.519531 26.117188 -0.00390625 26.054688 C 2.914062 27.914062 6.359375 29.003906 10.078125 29.003906 C 22.144531 29.003906 28.738281 19.007812 28.738281 10.351562 C 28.738281 10.078125 28.738281 9.796875 28.71875 9.515625 C 30.003906 8.597656 31.117188 7.433594 31.996094 6.117188 Z M 31.9375 6.09375 "/>
</g>
</svg>
